<svg xmlns="http://www.w3.org/2000/svg" width="120" height="34" viewBox="0 0 120 34" fill="none"><g clip-path="url(#clip0_172_67)"><path d="M50.6064 13.033L49.932 11.3385H46.0704L45.396 13.033H44.3448L47.4072 5.39941H48.5832L51.6576 13.033H50.6064ZM48 6.24545L46.344 10.49H49.6464L48 6.24545Z" fill="white"></path><path d="M52.0105 9.22094C52.0105 6.87511 53.7361 5.27197 55.8961 5.27197C57.2785 5.27197 58.2169 5.92332 58.8217 6.78378L58.0225 7.23083C57.5881 6.5891 56.7985 6.12041 55.8961 6.12041C54.2617 6.12041 52.9945 7.40148 52.9945 9.22094C52.9945 11.0404 54.2641 12.3215 55.8961 12.3215C56.7985 12.3215 57.5881 11.8648 58.0225 11.211L58.8337 11.6581C58.1929 12.5282 57.2785 13.1675 55.8961 13.1675C53.7361 13.1675 52.0105 11.5644 52.0105 9.21853V9.22094Z" fill="white"></path><path d="M60.1368 13.033V5.39941H65.1312V6.24545H61.0848V8.70664H65.0496V9.55268H61.0848V12.1845H65.1312V13.0306H60.1368V13.033Z" fill="white"></path><path d="M66.7296 13.033V5.39941H67.6776V12.1869H71.22V13.033H66.7296Z" fill="white"></path><path d="M72.6504 13.033V5.39941H77.6448V6.24545H73.5984V8.70664H77.5632V9.55268H73.5984V12.1845H77.6448V13.0306H72.6504V13.033Z" fill="white"></path><path d="M83.6544 13.033L81.7128 9.99973H80.1936V13.033H79.2456V5.39941H82.308C83.7024 5.39941 84.696 6.29112 84.696 7.69957C84.696 9.10803 83.76 9.82908 82.7184 9.92041L84.7752 13.033H83.6544ZM82.1928 6.24545H80.1936V9.16331H82.1928C83.0952 9.16331 83.712 8.55762 83.712 7.69957C83.712 6.84152 83.0952 6.24545 82.1928 6.24545Z" fill="white"></path><path d="M91.7568 13.033L91.0824 11.3385H87.2208L86.5464 13.033H85.4952L88.5576 5.39941H89.7336L92.808 13.033H91.7568ZM89.1504 6.24545L87.4944 10.49H90.7968L89.1504 6.24545Z" fill="white"></path><path d="M99.9864 11.6605C99.3696 12.497 98.5128 13.1147 97.2216 13.1699L97.0272 13.6627C97.1424 13.5833 97.3008 13.5377 97.4496 13.5377C97.884 13.5377 98.2032 13.8357 98.2032 14.2828C98.2032 14.8668 97.6657 15.2201 97.0153 15.2201C96.5233 15.2201 96.0889 15.0591 95.8609 14.8764L96.0792 14.4414C96.3528 14.6697 96.6841 14.7731 96.9937 14.7731C97.3585 14.7731 97.6896 14.6024 97.6896 14.2707C97.6896 14.0544 97.5528 13.8934 97.2672 13.8934C97.1064 13.8934 96.936 13.9727 96.8328 14.0881L96.456 13.8694L96.72 13.1603C94.7208 12.9993 93.1656 11.4442 93.1656 9.22338C93.1656 6.87755 94.8912 5.27441 97.0512 5.27441C98.4336 5.27441 99.372 5.92576 99.9768 6.78622L99.1776 7.23327C98.7432 6.59154 97.9536 6.12285 97.0512 6.12285C95.4168 6.12285 94.1497 7.40392 94.1497 9.22338C94.1497 11.0428 95.4192 12.3239 97.0512 12.3239C97.9536 12.3239 98.7432 11.8672 99.1776 11.2135L99.9888 11.6605H99.9864Z" fill="white"></path><path d="M106.728 13.0331L106.054 11.3386H102.192L101.518 13.0331H100.466L103.529 5.39955H104.705L107.779 13.0331H106.728ZM103.402 3.72911C103.092 3.72911 102.852 4.02715 102.852 4.71215H102.338C102.338 3.82045 102.727 3.17871 103.447 3.17871C103.903 3.17871 104.11 3.49838 104.304 3.7844C104.465 4.01273 104.602 4.23145 104.854 4.23145C105.163 4.23145 105.403 3.93341 105.403 3.24841H105.917C105.917 4.14011 105.528 4.78185 104.808 4.78185C104.352 4.78185 104.134 4.46218 103.939 4.17617C103.79 3.94783 103.654 3.72911 103.402 3.72911ZM104.122 6.24799L102.466 10.4926H105.768L104.122 6.24799Z" fill="white"></path><path d="M111.917 5.27441C114.168 5.27441 115.699 6.96889 115.699 9.22338C115.699 11.4779 114.168 13.1723 111.917 13.1723C109.666 13.1723 108.134 11.4779 108.134 9.22338C108.134 6.96889 109.654 5.27441 111.917 5.27441ZM111.917 6.12045C110.203 6.12045 109.116 7.43757 109.116 9.22098C109.116 11.0044 110.201 12.3215 111.917 12.3215C113.633 12.3215 114.715 10.9948 114.715 9.22098C114.715 7.44719 113.618 6.12045 111.917 6.12045Z" fill="white"></path><path d="M41.3519 25.9497C41.7023 26.19 42.1823 26.428 42.7247 26.428C43.4279 26.428 43.9055 25.9809 43.9055 25.2286V18.4219H47.1287V25.2767C47.1287 28.0095 45.4847 29.2713 43.0127 29.2713C41.9759 29.2713 40.8743 29.0478 40.0439 28.4085L41.3519 25.9473V25.9497Z" fill="white"></path><path d="M49.5696 18.4218H52.8408V24.5916C52.8408 25.6155 53.3664 26.4303 54.6912 26.4303C56.016 26.4303 56.5272 25.6155 56.5272 24.5916V18.4218H59.7984V24.6854C59.7984 27.3389 58.2816 29.2713 54.6912 29.2713C51.1008 29.2713 49.5696 27.3365 49.5696 24.6998V18.4194V18.4218Z" fill="white"></path><path d="M68.0951 29.0814L66.6263 25.6612H65.4623V29.0814H62.2391V18.4219H67.9199C70.4087 18.4219 71.7503 20.0851 71.7503 22.0824C71.7503 23.9211 70.6823 24.8945 69.8351 25.3103L71.7671 29.0814H68.0975H68.0951ZM67.4255 21.1066H65.4623V22.9765H67.4255C67.9679 22.9765 68.4791 22.6256 68.4791 22.0343C68.4791 21.4431 67.9679 21.1066 67.4255 21.1066Z" fill="white"></path><path d="M73.7736 29.0814V18.4218H76.9968V29.0814H73.7736ZM76.2792 17.5277H74.364L76.2792 15.2275H78.7536L76.2792 17.5277Z" fill="white"></path><path d="M79.4375 29.0814V18.4219H84.1919C87.5423 18.4219 90.0335 20.3399 90.0335 23.7432C90.0335 27.1466 87.5447 29.0814 84.2087 29.0814H79.4375ZM82.6607 26.2693H84.1919C85.8047 26.2693 86.7623 25.0868 86.7623 23.7432C86.7623 22.3059 85.9319 21.234 84.2087 21.234H82.6607V26.2669V26.2693Z" fill="white"></path><path d="M91.9008 29.0814V18.4219H95.124V29.0814H91.9008Z" fill="white"></path><path d="M96.9911 23.7602C96.9911 20.4674 99.5135 18.2466 102.768 18.2466C105.641 18.2466 107.045 19.8762 107.683 21.3471L104.906 22.6426C104.635 21.811 103.805 21.0923 102.768 21.0923C101.299 21.0923 100.262 22.2749 100.262 23.7602C100.262 25.2456 101.299 26.4281 102.768 26.4281C103.805 26.4281 104.635 25.7095 104.906 24.8779L107.683 26.1565C107.061 27.5794 105.641 29.2739 102.768 29.2739C99.5135 29.2739 96.9911 27.0362 96.9911 23.7602Z" fill="white"></path><path d="M116.506 29.0814L116.09 27.7066H112.006L111.59 29.0814H108.096L112.022 18.4219H116.076L120.002 29.0814H116.508H116.506ZM114.048 21.2676L112.836 25.0243H115.262L114.05 21.2676H114.048Z" fill="white"></path><path d="M13.9536 8.21161L13.9512 8.2068H20.388L25.0488 0.140625H0L9.2976 16.2682L13.9536 8.21161Z" fill="#BBA25F"></path><path d="M29.4168 0.140625L24.756 8.2068H24.7632L19.356 17.5829L16.1352 11.9947L11.4792 20.0513L19.356 33.7152L38.712 0.140625H29.4168Z" fill="#BBA25F"></path></g><defs><clipPath id="clip0_172_67"><rect width="120" height="33.5746" fill="white" transform="translate(0 0.140625)"></rect></clipPath></defs></svg>